<mxfile host="app.diagrams.net" agent="Mozilla/5.0 (Windows NT 10.0; Win64; x64) AppleWebKit/537.36 (KHTML, like Gecko) Chrome/128.0.0.0 Safari/537.36" version="24.7.16">
  <diagram name="Page-1" id="Qzch1_LbPbUCXL5z45Zx">
    <mxGraphModel dx="778" dy="393" grid="1" gridSize="10" guides="1" tooltips="1" connect="1" arrows="1" fold="1" page="1" pageScale="1" pageWidth="827" pageHeight="1169" math="0" shadow="0">
      <root>
        <mxCell id="0" />
        <mxCell id="1" parent="0" />
        <mxCell id="Le7QSx57gCqSGAbvQyVc-5" value="&lt;font style=&quot;font-size: 15px;&quot;&gt;Identification des sources&lt;/font&gt;&lt;div&gt;&lt;font style=&quot;font-size: 15px;&quot;&gt;&amp;nbsp;des images&lt;/font&gt;&lt;/div&gt;" style="rounded=1;whiteSpace=wrap;html=1;fillColor=#FFFFFF;strokeColor=#D5E8D4;strokeWidth=3;" vertex="1" parent="1">
          <mxGeometry x="10" y="200" width="200" height="60" as="geometry" />
        </mxCell>
        <mxCell id="Le7QSx57gCqSGAbvQyVc-11" value="" style="shape=flexArrow;endArrow=classic;html=1;rounded=0;entryX=0;entryY=0.5;entryDx=0;entryDy=0;exitX=1;exitY=0.5;exitDx=0;exitDy=0;strokeColor=#B0BFAF;strokeWidth=2;" edge="1" parent="1" source="Le7QSx57gCqSGAbvQyVc-5">
          <mxGeometry width="50" height="50" relative="1" as="geometry">
            <mxPoint x="220" y="230" as="sourcePoint" />
            <mxPoint x="280" y="230" as="targetPoint" />
          </mxGeometry>
        </mxCell>
        <mxCell id="Le7QSx57gCqSGAbvQyVc-14" value="&lt;b&gt;1&lt;/b&gt;" style="ellipse;whiteSpace=wrap;html=1;aspect=fixed;strokeWidth=2;fontFamily=Tahoma;spacingBottom=4;spacingRight=2;strokeColor=#B0BFAF;fillColor=#FFFFFF;" vertex="1" parent="1">
          <mxGeometry x="190" y="240" width="30" height="30" as="geometry" />
        </mxCell>
        <mxCell id="Le7QSx57gCqSGAbvQyVc-19" value="&lt;span style=&quot;font-size: 15px;&quot;&gt;Étiquetage des images&lt;/span&gt;" style="rounded=1;whiteSpace=wrap;html=1;fillColor=#FFFFFF;strokeColor=#D5E8D4;strokeWidth=3;" vertex="1" parent="1">
          <mxGeometry x="280" y="200" width="180" height="60" as="geometry" />
        </mxCell>
        <mxCell id="Le7QSx57gCqSGAbvQyVc-21" value="&lt;span style=&quot;font-size: 15px;&quot;&gt;Détection des plantes avec YOLOv8L&lt;/span&gt;" style="rounded=1;whiteSpace=wrap;html=1;fillColor=#FFFFFF;strokeColor=#D5E8D4;strokeWidth=3;" vertex="1" parent="1">
          <mxGeometry x="530" y="200" width="180" height="60" as="geometry" />
        </mxCell>
        <mxCell id="Le7QSx57gCqSGAbvQyVc-22" value="&lt;span style=&quot;font-size: 15px;&quot;&gt;Extraction des métadonnées&lt;/span&gt;" style="rounded=1;whiteSpace=wrap;html=1;fillColor=#FFFFFF;strokeColor=#D5E8D4;strokeWidth=3;" vertex="1" parent="1">
          <mxGeometry x="530" y="333" width="180" height="60" as="geometry" />
        </mxCell>
        <mxCell id="Le7QSx57gCqSGAbvQyVc-23" value="&lt;b&gt;2&lt;/b&gt;" style="ellipse;whiteSpace=wrap;html=1;aspect=fixed;strokeWidth=2;fontFamily=Tahoma;spacingBottom=4;spacingRight=2;strokeColor=#B0BFAF;fillColor=#FFFFFF;" vertex="1" parent="1">
          <mxGeometry x="440" y="240" width="30" height="30" as="geometry" />
        </mxCell>
        <mxCell id="Le7QSx57gCqSGAbvQyVc-24" value="&lt;b&gt;3&lt;/b&gt;" style="ellipse;whiteSpace=wrap;html=1;aspect=fixed;strokeWidth=2;fontFamily=Tahoma;spacingBottom=4;spacingRight=2;strokeColor=#B0BFAF;fillColor=#FFFFFF;" vertex="1" parent="1">
          <mxGeometry x="690" y="240" width="30" height="30" as="geometry" />
        </mxCell>
        <mxCell id="Le7QSx57gCqSGAbvQyVc-25" value="&lt;b&gt;4&lt;/b&gt;" style="ellipse;whiteSpace=wrap;html=1;aspect=fixed;strokeWidth=2;fontFamily=Tahoma;spacingBottom=4;spacingRight=2;strokeColor=#B0BFAF;fillColor=#FFFFFF;" vertex="1" parent="1">
          <mxGeometry x="690" y="373" width="30" height="30" as="geometry" />
        </mxCell>
        <mxCell id="Le7QSx57gCqSGAbvQyVc-27" value="" style="shape=flexArrow;endArrow=classic;html=1;rounded=0;entryX=0;entryY=0.5;entryDx=0;entryDy=0;exitX=1;exitY=0.5;exitDx=0;exitDy=0;strokeColor=#B0BFAF;strokeWidth=2;" edge="1" parent="1">
          <mxGeometry width="50" height="50" relative="1" as="geometry">
            <mxPoint x="460" y="229.67" as="sourcePoint" />
            <mxPoint x="530" y="229.67" as="targetPoint" />
          </mxGeometry>
        </mxCell>
        <mxCell id="Le7QSx57gCqSGAbvQyVc-28" value="" style="shape=flexArrow;endArrow=classic;html=1;rounded=0;entryX=0.5;entryY=0;entryDx=0;entryDy=0;exitX=0.5;exitY=1;exitDx=0;exitDy=0;strokeColor=#B0BFAF;strokeWidth=2;" edge="1" parent="1" source="Le7QSx57gCqSGAbvQyVc-21" target="Le7QSx57gCqSGAbvQyVc-22">
          <mxGeometry width="50" height="50" relative="1" as="geometry">
            <mxPoint x="620" y="269.31" as="sourcePoint" />
            <mxPoint x="690" y="269.31" as="targetPoint" />
          </mxGeometry>
        </mxCell>
      </root>
    </mxGraphModel>
  </diagram>
</mxfile>
